#!OML:ASF H:\Terrain\Walking\May29\JustinRory\Justin.ASF
:FULLY-SPECIFIED
:DEGREES
296
root 6.83576 14.7593 -3.44968 -9.01684 -69.998 3.62607 
lowerback 27.3271 4.79858 5.56689 
upperback 4.27122 7.69691 1.4093 
thorax -9.72943 3.32812 -4.20788 
lowerneck -17.7145 13.8738 -5.26551 
upperneck 12.8599 22.5401 -13.7176 
head 8.01043 9.10961 -0.857227 
rclavicle -3.81667e-14 1.59028e-15 
rhumerus -19.4576 -12.3175 -70.7675 
rradius 25.3877 
rwrist -13.4088 
rhand -28.0842 -333.562 
rfingers 7.12502 
rthumb -1.46725 -3.53673 
lclavicle -3.81667e-14 1.59028e-15 
lhumerus -22.5628 -11.4716 78.5654 
lradius 49.8574 
lwrist 0.568727 
lhand 6.42383 43.5266 
lfingers 7.12502 
lthumb 31.7271 70.7869 
rfemur -28.672 -12.4114 7.8178 
rtibia 99.9052 
rfoot -18.2357 -4.79736 
rtoes -4.61563 
lfemur -31.81 -4.50661 9.48026 
ltibia 42.3464 
lfoot -9.23926 -15.3459 
ltoes -21.2679 
297
root 6.81948 14.8349 -3.65344 -9.20989 -68.3939 3.72301 
lowerback 26.7744 4.74074 5.35632 
upperback 4.46217 7.52702 1.46188 
thorax -9.28218 3.28804 -3.91298 
lowerneck -18.0422 13.6639 -5.3491 
upperneck 13.1978 22.3456 -13.5632 
head 8.14385 8.97878 -0.794252 
rclavicle 7.95139e-16 1.74931e-14 
rhumerus -18.4723 -11.6428 -71.5301 
rradius 25.4664 
rwrist -12.9881 
rhand -27.5606 -334.207 
rfingers 7.12502 
rthumb -0.961532 -4.18418 
lclavicle 7.95139e-16 1.74931e-14 
lhumerus -22.8603 -9.88332 77.7464 
lradius 49.5536 
lwrist 0.523332 
lhand 6.74804 44.2267 
lfingers 7.12502 
lthumb 32.0358 71.4254 
rfemur -25.9808 -9.81609 6.75337 
rtibia 96.9347 
rfoot -17.0819 -4.80524 
rtoes 0.530939 
lfemur -31.2676 -5.31336 9.30538 
ltibia 39.8331 
lfoot -6.20972 -14.0923 
ltoes -17.4172 
298
root 6.80717 14.9097 -3.85341 -10.0892 -66.5483 4.43907 
lowerback 26.5631 4.80877 4.28859 
upperback 4.49149 7.36309 1.90115 
thorax -9.35961 3.25048 -2.76611 
lowerneck -18.2267 13.5735 -5.42921 
upperneck 13.7252 22.4551 -13.9668 
head 8.41265 8.91313 -0.857685 
rclavicle -4.21423e-14 -7.95139e-15 
rhumerus -17.6744 -10.259 -71.6071 
rradius 25.3575 
rwrist -12.4835 
rhand -27.21 -334.322 
rfingers 7.12502 
rthumb -0.622956 -4.30057 
lclavicle -4.21423e-14 -7.95139e-15 
lhumerus -23.7687 -7.70528 77.4797 
lradius 49.4669 
lwrist 0.14277 
lhand 6.8195 44.9028 
lfingers 7.12502 
lthumb 32.1039 72.0879 
rfemur -22.8677 -7.3017 5.60924 
rtibia 93.1679 
rfoot -15.8665 -4.74836 
rtoes 1.90084 
lfemur -30.72 -6.22259 8.61063 
ltibia 37.3639 
lfoot -4.11939 -12.3946 
ltoes -18.839 
299
root 6.7927 14.9711 -4.05514 -9.18965 -64.8805 3.2317 
lowerback 26.2685 4.68556 4.68352 
upperback 4.57222 7.30828 2.00646 
thorax -9.08539 3.2311 -2.82088 
lowerneck -19.8543 13.4271 -5.73478 
upperneck 16.0075 22.7159 -12.7763 
head 9.30199 8.82032 -0.2432 
rclavicle -6.24184e-14 4.6118e-14 
rhumerus -16.883 -9.01723 -72.2322 
rradius 25.3515 
rwrist -12.4308 
rhand -26.4846 -333.939 
rfingers 7.12502 
rthumb 0.077657 -3.91886 
lclavicle -6.24184e-14 4.6118e-14 
lhumerus -24.2481 -6.42048 76.4757 
lradius 49.4643 
lwrist -0.0148075 
lhand 6.32401 45.3707 
lfingers 7.12502 
lthumb 31.632 72.6497 
rfemur -19.5571 -4.45507 5.91767 
rtibia 88.6344 
rfoot -15.0911 -4.89099 
rtoes -0.908338 
lfemur -30.3079 -6.8934 8.79723 
ltibia 35.1251 
lfoot -2.29038 -10.983 
ltoes -20.6047 
300
root 6.77389 15.0135 -4.25858 -7.59932 -63.2423 1.32583 
lowerback 25.9764 4.38365 5.62924 
upperback 4.55313 7.16448 1.99663 
thorax -8.84564 3.15186 -3.28589 
lowerneck -18.0728 12.9441 -5.00039 
upperneck 14.0558 21.5568 -14.0297 
head 8.5116 8.48511 -1.0556 
rclavicle -3.77691e-14 7.95139e-15 
rhumerus -16.2914 -7.56017 -73.1749 
rradius 25.7668 
rwrist -12.4564 
rhand -25.7218 -334.148 
rfingers 7.12502 
rthumb 0.814462 -4.1258 
lclavicle -3.77691e-14 7.95139e-15 
lhumerus -24.731 -5.17044 75.0762 
lradius 49.4323 
lwrist 0.0354662 
lhand 5.51635 45.5798 
lfingers 7.12502 
lthumb 30.8624 73.0075 
rfemur -16.2163 -1.68837 7.09249 
rtibia 83.6504 
rfoot -15.1117 -6.17815 
rtoes -10.3142 
lfemur -30.1577 -7.48469 9.53612 
ltibia 33.023 
lfoot -0.0288577 -9.76775 
ltoes -19.1656 
301
root 6.75381 15.0304 -4.46045 -6.14279 -61.52 -0.190576 
lowerback 25.3763 4.06423 6.21052 
upperback 4.50134 6.8846 2.04027 
thorax -8.55355 3.0255 -3.42666 
lowerneck -17.5159 12.7426 -4.52514 
upperneck 13.4481 21.0432 -14.2675 
head 8.25877 8.33986 -1.31072 
rclavicle 3.18055e-15 7.95139e-15 
rhumerus -15.5285 -6.42347 -74.0398 
rradius 26.0624 
rwrist -11.6186 
rhand -25.27 -334.345 
rfingers 7.12502 
rthumb 1.25079 -4.32132 
lclavicle 3.18055e-15 7.95139e-15 
lhumerus -25.1928 -3.57759 73.5676 
lradius 49.3195 
lwrist 0.124577 
lhand 4.72141 45.44 
lfingers 7.12502 
lthumb 30.1042 73.0084 
rfemur -13.1388 1.00988 8.28578 
rtibia 78.9734 
rfoot -17.904 -1.9708 
rtoes -17.318 
lfemur -30.4568 -8.05293 10.3229 
ltibia 31.0455 
lfoot 2.5988 -8.22526 
ltoes -14.3066 
302
root 6.72274 15.0569 -4.67751 -4.89661 -59.6994 -0.770511 
lowerback 24.0664 4.08399 6.1011 
upperback 4.34346 6.83042 2.11106 
thorax -8.08164 3.04037 -3.17076 
lowerneck -17.6592 12.4378 -4.36835 
upperneck 13.7457 20.617 -14.0339 
head 8.34785 8.13853 -1.30325 
rclavicle 8.09054e-14 -4.77083e-15 
rhumerus -14.939 -5.69237 -74.3916 
rradius 26.462 
rwrist -10.9304 
rhand -24.3779 -333.551 
rfingers 7.12502 
rthumb 2.1124 -3.52007 
lclavicle 8.09054e-14 -4.77083e-15 
lhumerus -25.4263 -2.18703 72.3572 
lradius 49.2124 
lwrist 0.11051 
lhand 3.88666 45.2411 
lfingers 7.12502 
lthumb 29.3075 72.9516 
rfemur -10.8005 3.35209 9.18587 
rtibia 74.9561 
rfoot -22.2159 4.2007 
rtoes -17.1955 
lfemur -31.4893 -8.51185 10.8422 
ltibia 29.1631 
lfoot 4.91807 -6.41189 
ltoes -10.4445 
303
root 6.69644 15.0787 -4.90205 -2.50133 -57.9599 -2.25132 
lowerback 22.9224 4.37377 5.95644 
upperback 3.75792 7.21625 2.65789 
thorax -8.19924 3.2369 -2.53958 
lowerneck -17.8299 11.9749 -4.54692 
upperneck 14.5589 20.1202 -13.648 
head 8.56598 7.85163 -1.20277 
rclavicle -8.36883e-14 -3.97569e-14 
rhumerus -14.9882 -4.88863 -73.9048 
rradius 27.1373 
rwrist -10.8153 
rhand -22.5496 -332.702 
rfingers 7.12502 
rthumb 3.87809 -2.64647 
lclavicle -8.36883e-14 -3.97569e-14 
lhumerus -26.0976 -1.29657 71.8249 
lradius 49.3164 
lwrist 0.267313 
lhand 3.38409 45.0721 
lfingers 7.12502 
lthumb 28.8275 72.8654 
rfemur -9.34052 5.24313 10.9019 
rtibia 71.5774 
rfoot -24.1647 6.09509 
rtoes -32.2118 
lfemur -33.0189 -8.22135 11.8245 
ltibia 27.3095 
lfoot 7.07858 -5.48898 
ltoes -12.1061 
304
root 6.68521 15.0967 -5.10831 0.847007 -56.3323 -5.46866 
lowerback 22.0063 4.13793 7.78295 
upperback 3.4865 7.30519 2.80105 
thorax -7.79646 3.25378 -3.34149 
lowerneck -18.651 11.6784 -4.53895 
upperneck 15.4743 19.6939 -12.3937 
head 8.84605 7.6671 -0.807573 
rclavicle -2.52457e-14 -1.98785e-14 
rhumerus -14.3392 -4.3105 -74.5251 
rradius 27.6388 
rwrist -10.7767 
rhand -20.9059 -332.516 
rfingers 7.12502 
rthumb 5.46521 -2.42592 
lclavicle -2.52457e-14 -1.98785e-14 
lhumerus -26.2114 -0.556714 70.1164 
lradius 49.3917 
lwrist 0.83666 
lhand 3.36844 44.7237 
lfingers 7.12502 
lthumb 28.8126 72.5195 
rfemur -7.85249 6.94154 13.9949 
rtibia 68.5752 
rfoot -27.269 6.43476 
rtoes -38.022 
lfemur -34.3507 -7.40457 13.4741 
ltibia 25.974 
lfoot 9.00836 -5.08522 
ltoes -13.696 
305
root 6.67584 15.073 -5.29081 3.40936 -54.5143 -8.27818 
lowerback 21.1416 3.87811 9.45408 
upperback 3.43465 7.29169 3.2395 
thorax -7.24338 3.23996 -3.69907 
lowerneck -19.9883 11.3791 -5.19275 
upperneck 16.9887 19.5208 -10.9072 
head 9.35799 7.51489 -0.166396 
rclavicle 1.24439e-13 1.59028e-15 
rhumerus -13.6559 -2.99863 -74.6359 
rradius 28.3224 
rwrist -11.235 
rhand -20.0193 -332.179 
rfingers 7.12502 
rthumb 6.3212 -2.06489 
lclavicle 1.24439e-13 1.59028e-15 
lhumerus -26.3778 0.955392 68.8497 
lradius 49.3883 
lwrist 0.988468 
lhand 3.5671 44.4115 
lfingers 7.12502 
lthumb 29.0023 72.1748 
rfemur -6.32348 7.61125 16.9099 
rtibia 66.1429 
rfoot -30.3391 6.45801 
rtoes -39.7353 
lfemur -35.2101 -7.56415 15.3382 
ltibia 25.0046 
lfoot 9.74272 -3.18736 
ltoes -5.0031 
306
root 6.66968 15.065 -5.47345 4.8224 -52.7145 -9.54094 
lowerback 19.9361 3.71715 10.2064 
upperback 3.54812 7.109 3.59849 
thorax -6.45115 3.1919 -3.5652 
lowerneck -20.7958 11.0606 -5.69844 
upperneck 17.4487 19.2836 -10.4632 
head 9.55725 7.34518 0.0646453 
rclavicle 9.16397e-14 -1.59028e-14 
rhumerus -12.7244 -1.72248 -74.4811 
rradius 29.1173 
rwrist -11.753 
rhand -19.2135 -331.848 
rfingers 7.12502 
rthumb 7.0991 -1.7089 
lclavicle 9.16397e-14 -1.59028e-14 
lhumerus -26.373 2.92447 67.7898 
lradius 49.3891 
lwrist 1.30226 
lhand 3.64541 44.0779 
lfingers 7.12502 
lthumb 29.0771 71.8283 
rfemur -5.44855 7.05446 18.7861 
rtibia 64.2945 
rfoot -32.5776 5.21674 
rtoes -41.7463 
lfemur -35.4266 -6.69417 15.4526 
ltibia 24.49 
lfoot 8.47557 -4.71615 
ltoes -10.618 
307
root 6.67666 15.0681 -5.65664 5.27843 -51.1228 -9.65518 
lowerback 19.2186 3.68789 10.4199 
upperback 3.48925 7.03856 3.66197 
thorax -6.12291 3.17811 -3.53761 
lowerneck -20.6284 10.6622 -5.96458 
upperneck 16.9017 18.6968 -10.4622 
head 9.29565 7.11874 -0.00971175 
rclavicle -6.75868e-15 -3.18055e-15 
rhumerus -12.1307 -0.745701 -74.2998 
rradius 30.1114 
rwrist -12.6635 
rhand -18.4492 -332.027 
rfingers 7.12502 
rthumb 7.83678 -1.86191 
lclavicle -6.75868e-15 -3.18055e-15 
lhumerus -26.333 4.55759 66.6114 
lradius 49.2721 
lwrist 2.28203 
lhand 3.01556 43.4818 
lfingers 7.12502 
lthumb 28.4754 71.3345 
rfemur -5.1385 5.85028 19.8627 
rtibia 63.1728 
rfoot -34.4118 3.32729 
rtoes -42.9695 
lfemur -36.1523 -6.65062 15.3347 
ltibia 24.1173 
lfoot 8.31866 -5.12022 
ltoes -8.17437 
